<?xml version="1.0" encoding="UTF-8"?>
<svg id="Calque_2" data-name="Calque 2" xmlns="http://www.w3.org/2000/svg" viewBox="0 0 449.44 137.06">
  <defs>
    <style>
      .cls-1 {
        fill: #fff;
        fill-rule: evenodd;
      }
    </style>
  </defs>
  <g id="Plan_1" data-name="Plan 1">
    <path class="cls-1" d="M98.78,58l.18,5.6c0,32.52-6.29,72.9-47.56,72.9C12.59,136.5,0,102.41,0,69.01S12.41.13,51.05.13c21.33,0,37.24,13.46,44.93,32.52l-34.44,12.77c-.35-5.24-3.85-13.47-10.14-13.47-16.43,0-15.03,30.25-15.03,40.21.52,9.44-.18,32.52,13.63,32.52,9.44,0,12.41-11.19,12.24-18.88h-13.11v-27.8h49.65ZM222.67,102.14c-3.8,22.42-19.87,34.92-40.25,34.92-28.16,0-42.15-20.21-42.15-48.7s15.03-52.38,43.01-52.38c13.99,0,24.18,6.25,30.75,15.81,8.81,12.68,9.85,27.02,9.85,42.27h-49.75c0,5.69.86,14.88,7.95,14.88,3.8,0,6.73-2.93,7.42-6.8h33.17ZM392.19,135.04h-33.31l1.53-15.56-.35-.36c-4.25,10.01-12.06,17.89-22.94,17.89-23.11,0-27.53-31.67-27.53-50.09s5.27-48.3,28.22-48.3c10.71,0,17.33,7.52,21.58,16.82l.34-.36-1.36-14.49h33.82v94.46h0ZM189.85,74.58c-.17-5.33-2.07-12.32-8.12-12.32-5.7,0-7.78,7.35-7.6,12.32h15.72ZM357.86,96.4c1.02-4.83,1.02-7.16,1.02-9.84,0-2.51.17-4.39-.68-8.68-.85-4.12-2.55-7.69-6.46-7.69s-5.95,4.29-6.97,9.48c-.85,5.01-.85,8.15-.85,11.19,0,2.69.17,3.94,1.02,7.69.85,3.58,2.55,6.45,5.78,6.45,4.25,0,6.29-3.94,7.14-8.59h0ZM205.71,31.93h-51.23L206.06,0l-.35,31.93h0ZM405.09,135.04v-66.37h-9.52v-28.09h9.52V12.85h33.31v27.73h11.05v28.09h-11.05v66.37h-33.31ZM259.3,58.11l.34.36c3.23-10.2,11.9-19.86,22.94-19.86,19.2,0,23.96,17.18,23.96,34.17v62.26h-33.31v-47.77c0-8.05-.51-13.78-6.12-13.78-6.46,0-6.97,6.45-6.97,16.1v45.45h-33.31V40.58h33.31l-.85,17.53h0ZM104.31,1.54h32.81v133.49h-32.81V1.54Z"/>
  </g>
</svg>