<?xml version="1.0" encoding="UTF-8"?>
<svg id="Calque_2" data-name="Calque 2" xmlns="http://www.w3.org/2000/svg" viewBox="0 0 68.03 49.13">
  <defs>
    <style>
      .cls-1 {
        fill: #050007;
        fill-rule: evenodd;
      }
    </style>
  </defs>
  <g id="Calque_1-2" data-name="Calque 1">
    <path class="cls-1" d="M26.05,49.13h-9.99l9.99-16.14,5.23,8.45,12.58-20.33,7.09,11.45,3.42-5.52,13.67,22.08H26.05ZM22.5,15.38h0c-.01-2.26-1.14-3.66-2.73-4.45-.81-1.54-2.18-2.63-4.35-2.63h0s-.02,0-.03,0c-2.2,0-3.58,1.12-4.38,2.7-1.58.8-2.7,2.19-2.7,4.38h0v.04c0,2.17,1.09,3.54,2.63,4.35.79,1.6,2.19,2.72,4.45,2.73h0s.02,0,.03,0h0c2.22-.01,3.62-1.1,4.42-2.67,1.56-.8,2.66-2.19,2.67-4.42h0s0-.02,0-.03h0ZM26.3,4.52l3.11,3.11-8.13,1.91,1.91-8.13,3.11,3.11h0ZM4.5,26.28l-3.11-3.11,8.13-1.91-1.91,8.13-3.11-3.11h0ZM30.8,15.42v4.39l-7.1-4.39,7.1-4.4v4.4h0ZM0,15.38v4.4l7.1-4.4L0,10.99v4.39h0ZM26.28,26.3l3.11-3.11-8.13-1.91,1.91,8.13,3.11-3.11h0ZM4.52,4.5l3.11-3.11,1.91,8.13L1.41,7.61l3.11-3.11h0ZM15.38,30.8h4.4l-4.4-7.1-4.39,7.1h4.39ZM15.42,0h-4.39l4.39,7.1L19.81,0h-4.39Z"/>
  </g>
</svg>