<?xml version="1.0" encoding="UTF-8"?>
<svg id="Calque_2" data-name="Calque 2" xmlns="http://www.w3.org/2000/svg" viewBox="0 0 68.03 49.13">
  <defs>
    <style>
      .cls-1 {
        fill: #050007;
        fill-rule: evenodd;
      }
    </style>
  </defs>
  <g id="Calque_1-2" data-name="Calque 1">
    <g>
      <path class="cls-1" d="M68.03,15.7h0s0,0,0,.01h0c0,.81-.43,1.29-1.03,1.55.24.6.2,1.25-.37,1.82h0s0,0,0,0h0c-.57.57-1.22.61-1.82.37-.26.6-.74,1.03-1.55,1.03h-.01c-.81,0-1.29-.43-1.55-1.03-.6.24-1.25.2-1.82-.37h0s0,0,0,0h0c-.57-.57-.61-1.22-.37-1.82-.6-.26-1.03-.74-1.03-1.55h0s0,0,0-.01h0c0-.81.43-1.29,1.03-1.55-.24-.6-.2-1.25.37-1.82h0s0,0,0,0c0,0,0,0,0,0h0c.57-.57,1.22-.61,1.82-.37.26-.6.74-1.03,1.55-1.03h.01c.81,0,1.29.43,1.55,1.03.6-.24,1.25-.2,1.82.37h0s0,0,0,0h0c.57.57.61,1.22.37,1.82.6.26,1.03.74,1.03,1.55Z"/>
      <polygon class="cls-1" points="40.43 43.42 43.96 49.13 47.5 43.42 54.03 44.96 52.49 38.43 58.2 34.89 52.49 31.36 54.03 24.83 47.5 26.36 43.96 20.65 40.43 26.36 33.89 24.83 35.43 31.36 29.72 34.89 35.43 38.43 33.89 44.96 40.43 43.42"/>
      <path class="cls-1" d="M22.71,15.15h0v.03h0c-.01,1.92-1.03,3.06-2.44,3.67.57,1.43.49,2.97-.87,4.34h0s-.01.01-.02.02h0c-1.36,1.35-2.89,1.44-4.32.87-.61,1.42-1.75,2.44-3.68,2.45h0s-.02,0-.02,0h0c-1.92-.01-3.06-1.03-3.67-2.44-1.43.57-2.97.49-4.34-.87h0s0,0,0,0c0,0-.01-.01-.02-.02h0c-1.35-1.37-1.44-2.89-.87-4.32C1.03,18.28.01,17.14,0,15.21H0s0-.02,0-.03h0c0-1.92,1.03-3.06,2.44-3.67-.57-1.43-.49-2.97.87-4.34h0s.01-.01.02-.02h0c1.36-1.35,2.89-1.44,4.32-.87.61-1.42,1.75-2.44,3.68-2.45h0s.02,0,.02,0h0c1.92.01,3.06,1.03,3.67,2.44,1.43-.57,2.97-.49,4.34.87h0s.01.01.02.02h0c1.35,1.37,1.44,2.89.87,4.32,1.42.61,2.44,1.75,2.45,3.68h0Z"/>
      <polygon class="cls-1" points="13.31 44.7 14.72 46.97 16.13 44.7 18.73 45.31 18.12 42.71 20.4 41.3 18.12 39.89 18.73 37.28 16.13 37.9 14.72 35.62 13.31 37.9 10.7 37.28 11.32 39.89 9.04 41.3 11.32 42.71 10.7 45.31 13.31 44.7"/>
      <polygon class="cls-1" points="36.8 11.12 38.53 13.91 40.26 11.12 43.45 11.87 42.7 8.68 45.48 6.95 42.7 5.23 43.45 2.04 40.26 2.79 38.53 0 36.8 2.79 33.61 2.04 34.36 5.23 31.57 6.95 34.36 8.68 33.61 11.87 36.8 11.12"/>
    </g>
  </g>
</svg>