<?xml version="1.0" encoding="UTF-8"?>
<svg id="Calque_2" data-name="Calque 2" xmlns="http://www.w3.org/2000/svg" viewBox="0 0 60.6 49.13">
  <defs>
    <style>
      .cls-1 {
        fill: #050007;
        fill-rule: evenodd;
      }
    </style>
  </defs>
  <g id="Calque_1-2" data-name="Calque 1">
    <path class="cls-1" d="M50.5,18.9v.02s0,.07,0,.11h0c-.02,3.57-.82,6.54-2.21,8.98,3.13.92,5.55,3.02,5.57,6.98h0s0,.04,0,.05h0c-.03,5.71-5.06,7.56-9.99,7.56-4.2,0-8.78-1.38-9.93-5.48-2.72.56-5.58.8-8.43.8C13.4,37.94,0,33.34,0,19.03c0-.04,0-.08,0-.12H0C0,4.6,13.4,0,25.51,0s24.91,4.64,24.99,18.9h0ZM60.6,45.33h0c-.02-2.85-2.53-3.78-5-3.78s-5.1.92-5.1,3.78h0s0,.02,0,.03c0,2.86,2.68,3.78,5.1,3.78s4.98-.93,5-3.78h0v-.02h0Z"/>
  </g>
</svg>